<svg xmlns="http://www.w3.org/2000/svg" width="1000" height="330" viewBox="0 0 1000 330" role="img" aria-label="SIMON_F8 — electrical engineering, robotics, embedded systems">
<style>
  .grid line { stroke:#0f3b3a; stroke-width:1 }
  .ticks line { stroke:#16605d; stroke-width:1 }
  .mono { font-family:'JetBrains Mono','Fira Code','Cascadia Code',Consolas,'DejaVu Sans Mono','Courier New',monospace }
  .ch1 { animation: s1 2s linear infinite }
  .ch2 { animation: s2 1.3s linear infinite }
  @keyframes s1 { to { transform: translateX(-156.667px) } }
  @keyframes s2 { to { transform: translateX(-78.333px) } }
  .blink { animation: bl 1.2s steps(1) infinite }
  @keyframes bl { 50% { opacity:.15 } }
  .flick { animation: fl 6s infinite }
  @keyframes fl { 0%,96%,100% { opacity:1 } 97% { opacity:.82 } 98% { opacity:1 } 99% { opacity:.9 } }
</style>
<defs>
  <filter id="g" filterUnits="userSpaceOnUse" x="0" y="0" width="1000" height="330"><feGaussianBlur stdDeviation="2.6" result="b"/><feMerge><feMergeNode in="b"/><feMergeNode in="SourceGraphic"/></feMerge></filter>
  <filter id="gt" filterUnits="userSpaceOnUse" x="0" y="0" width="1000" height="330"><feGaussianBlur stdDeviation="5" result="b"/><feMerge><feMergeNode in="b"/><feMergeNode in="SourceGraphic"/></feMerge></filter>
  <clipPath id="scr"><rect x="30" y="30" width="940" height="240" rx="8"/></clipPath>
  <pattern id="scan" width="4" height="3" patternUnits="userSpaceOnUse"><rect width="4" height="1" fill="#000" opacity=".35"/></pattern>
  <radialGradient id="vig" cx="50%" cy="50%" r="70%"><stop offset="60%" stop-color="#000" stop-opacity="0"/><stop offset="100%" stop-color="#000" stop-opacity=".75"/></radialGradient>
  <linearGradient id="bez" x1="0" y1="0" x2="0" y2="1"><stop offset="0" stop-color="#151a24"/><stop offset="1" stop-color="#0a0d14"/></linearGradient>
</defs>

<rect x="1" y="1" width="998" height="328" rx="18" fill="url(#bez)" stroke="#252c3b"/>
<rect x="26" y="26" width="948" height="248" rx="11" fill="#000" stroke="#1a2130"/>

<g clip-path="url(#scr)" class="flick">
  <rect x="30" y="30" width="940" height="240" fill="#020807"/>
  <g class="grid"><line x1="108.3" y1="30" x2="108.3" y2="270"/><line x1="186.7" y1="30" x2="186.7" y2="270"/><line x1="265.0" y1="30" x2="265.0" y2="270"/><line x1="343.3" y1="30" x2="343.3" y2="270"/><line x1="421.7" y1="30" x2="421.7" y2="270"/><line x1="500.0" y1="30" x2="500.0" y2="270"/><line x1="578.3" y1="30" x2="578.3" y2="270"/><line x1="656.7" y1="30" x2="656.7" y2="270"/><line x1="735.0" y1="30" x2="735.0" y2="270"/><line x1="813.3" y1="30" x2="813.3" y2="270"/><line x1="891.7" y1="30" x2="891.7" y2="270"/><line x1="30" y1="60.0" x2="970" y2="60.0"/><line x1="30" y1="90.0" x2="970" y2="90.0"/><line x1="30" y1="120.0" x2="970" y2="120.0"/><line x1="30" y1="150.0" x2="970" y2="150.0"/><line x1="30" y1="180.0" x2="970" y2="180.0"/><line x1="30" y1="210.0" x2="970" y2="210.0"/><line x1="30" y1="240.0" x2="970" y2="240.0"/></g>
  <g class="ticks"><line x1="30.0" y1="147.0" x2="30.0" y2="153.0"/><line x1="45.7" y1="147.0" x2="45.7" y2="153.0"/><line x1="61.3" y1="147.0" x2="61.3" y2="153.0"/><line x1="77.0" y1="147.0" x2="77.0" y2="153.0"/><line x1="92.7" y1="147.0" x2="92.7" y2="153.0"/><line x1="108.3" y1="147.0" x2="108.3" y2="153.0"/><line x1="124.0" y1="147.0" x2="124.0" y2="153.0"/><line x1="139.7" y1="147.0" x2="139.7" y2="153.0"/><line x1="155.3" y1="147.0" x2="155.3" y2="153.0"/><line x1="171.0" y1="147.0" x2="171.0" y2="153.0"/><line x1="186.7" y1="147.0" x2="186.7" y2="153.0"/><line x1="202.3" y1="147.0" x2="202.3" y2="153.0"/><line x1="218.0" y1="147.0" x2="218.0" y2="153.0"/><line x1="233.7" y1="147.0" x2="233.7" y2="153.0"/><line x1="249.3" y1="147.0" x2="249.3" y2="153.0"/><line x1="265.0" y1="147.0" x2="265.0" y2="153.0"/><line x1="280.7" y1="147.0" x2="280.7" y2="153.0"/><line x1="296.3" y1="147.0" x2="296.3" y2="153.0"/><line x1="312.0" y1="147.0" x2="312.0" y2="153.0"/><line x1="327.7" y1="147.0" x2="327.7" y2="153.0"/><line x1="343.3" y1="147.0" x2="343.3" y2="153.0"/><line x1="359.0" y1="147.0" x2="359.0" y2="153.0"/><line x1="374.7" y1="147.0" x2="374.7" y2="153.0"/><line x1="390.3" y1="147.0" x2="390.3" y2="153.0"/><line x1="406.0" y1="147.0" x2="406.0" y2="153.0"/><line x1="421.7" y1="147.0" x2="421.7" y2="153.0"/><line x1="437.3" y1="147.0" x2="437.3" y2="153.0"/><line x1="453.0" y1="147.0" x2="453.0" y2="153.0"/><line x1="468.7" y1="147.0" x2="468.7" y2="153.0"/><line x1="484.3" y1="147.0" x2="484.3" y2="153.0"/><line x1="500.0" y1="147.0" x2="500.0" y2="153.0"/><line x1="515.7" y1="147.0" x2="515.7" y2="153.0"/><line x1="531.3" y1="147.0" x2="531.3" y2="153.0"/><line x1="547.0" y1="147.0" x2="547.0" y2="153.0"/><line x1="562.7" y1="147.0" x2="562.7" y2="153.0"/><line x1="578.3" y1="147.0" x2="578.3" y2="153.0"/><line x1="594.0" y1="147.0" x2="594.0" y2="153.0"/><line x1="609.7" y1="147.0" x2="609.7" y2="153.0"/><line x1="625.3" y1="147.0" x2="625.3" y2="153.0"/><line x1="641.0" y1="147.0" x2="641.0" y2="153.0"/><line x1="656.7" y1="147.0" x2="656.7" y2="153.0"/><line x1="672.3" y1="147.0" x2="672.3" y2="153.0"/><line x1="688.0" y1="147.0" x2="688.0" y2="153.0"/><line x1="703.7" y1="147.0" x2="703.7" y2="153.0"/><line x1="719.3" y1="147.0" x2="719.3" y2="153.0"/><line x1="735.0" y1="147.0" x2="735.0" y2="153.0"/><line x1="750.7" y1="147.0" x2="750.7" y2="153.0"/><line x1="766.3" y1="147.0" x2="766.3" y2="153.0"/><line x1="782.0" y1="147.0" x2="782.0" y2="153.0"/><line x1="797.7" y1="147.0" x2="797.7" y2="153.0"/><line x1="813.3" y1="147.0" x2="813.3" y2="153.0"/><line x1="829.0" y1="147.0" x2="829.0" y2="153.0"/><line x1="844.7" y1="147.0" x2="844.7" y2="153.0"/><line x1="860.3" y1="147.0" x2="860.3" y2="153.0"/><line x1="876.0" y1="147.0" x2="876.0" y2="153.0"/><line x1="891.7" y1="147.0" x2="891.7" y2="153.0"/><line x1="907.3" y1="147.0" x2="907.3" y2="153.0"/><line x1="923.0" y1="147.0" x2="923.0" y2="153.0"/><line x1="938.7" y1="147.0" x2="938.7" y2="153.0"/><line x1="954.3" y1="147.0" x2="954.3" y2="153.0"/><line x1="497.0" y1="30.0" x2="503.0" y2="30.0"/><line x1="497.0" y1="36.0" x2="503.0" y2="36.0"/><line x1="497.0" y1="42.0" x2="503.0" y2="42.0"/><line x1="497.0" y1="48.0" x2="503.0" y2="48.0"/><line x1="497.0" y1="54.0" x2="503.0" y2="54.0"/><line x1="497.0" y1="60.0" x2="503.0" y2="60.0"/><line x1="497.0" y1="66.0" x2="503.0" y2="66.0"/><line x1="497.0" y1="72.0" x2="503.0" y2="72.0"/><line x1="497.0" y1="78.0" x2="503.0" y2="78.0"/><line x1="497.0" y1="84.0" x2="503.0" y2="84.0"/><line x1="497.0" y1="90.0" x2="503.0" y2="90.0"/><line x1="497.0" y1="96.0" x2="503.0" y2="96.0"/><line x1="497.0" y1="102.0" x2="503.0" y2="102.0"/><line x1="497.0" y1="108.0" x2="503.0" y2="108.0"/><line x1="497.0" y1="114.0" x2="503.0" y2="114.0"/><line x1="497.0" y1="120.0" x2="503.0" y2="120.0"/><line x1="497.0" y1="126.0" x2="503.0" y2="126.0"/><line x1="497.0" y1="132.0" x2="503.0" y2="132.0"/><line x1="497.0" y1="138.0" x2="503.0" y2="138.0"/><line x1="497.0" y1="144.0" x2="503.0" y2="144.0"/><line x1="497.0" y1="150.0" x2="503.0" y2="150.0"/><line x1="497.0" y1="156.0" x2="503.0" y2="156.0"/><line x1="497.0" y1="162.0" x2="503.0" y2="162.0"/><line x1="497.0" y1="168.0" x2="503.0" y2="168.0"/><line x1="497.0" y1="174.0" x2="503.0" y2="174.0"/><line x1="497.0" y1="180.0" x2="503.0" y2="180.0"/><line x1="497.0" y1="186.0" x2="503.0" y2="186.0"/><line x1="497.0" y1="192.0" x2="503.0" y2="192.0"/><line x1="497.0" y1="198.0" x2="503.0" y2="198.0"/><line x1="497.0" y1="204.0" x2="503.0" y2="204.0"/><line x1="497.0" y1="210.0" x2="503.0" y2="210.0"/><line x1="497.0" y1="216.0" x2="503.0" y2="216.0"/><line x1="497.0" y1="222.0" x2="503.0" y2="222.0"/><line x1="497.0" y1="228.0" x2="503.0" y2="228.0"/><line x1="497.0" y1="234.0" x2="503.0" y2="234.0"/><line x1="497.0" y1="240.0" x2="503.0" y2="240.0"/><line x1="497.0" y1="246.0" x2="503.0" y2="246.0"/><line x1="497.0" y1="252.0" x2="503.0" y2="252.0"/><line x1="497.0" y1="258.0" x2="503.0" y2="258.0"/><line x1="497.0" y1="264.0" x2="503.0" y2="264.0"/></g>

  <g filter="url(#g)" fill="none" stroke-linejoin="round">
    <path class="ch1" d="M30.0,141.5 L32.0,134.5 L34.0,128.2 L36.0,122.7 L38.0,118.1 L40.0,114.5 L42.0,111.8 L44.0,110.1 L46.0,109.3 L48.0,109.1 L50.0,109.5 L52.0,110.2 L54.0,111.1 L56.0,112.0 L58.0,112.8 L60.0,113.2 L62.0,113.1 L64.0,112.6 L66.0,111.5 L68.0,109.9 L70.0,107.9 L72.0,105.6 L74.0,103.1 L76.0,100.6 L78.0,98.4 L80.0,96.5 L82.0,95.2 L84.0,94.7 L86.0,95.1 L88.0,96.6 L90.0,99.1 L92.0,102.7 L94.0,107.3 L96.0,113.0 L98.0,119.4 L100.0,126.5 L102.0,134.1 L104.0,141.9 L106.0,149.7 L108.0,157.3 L110.0,164.3 L112.0,170.8 L114.0,176.4 L116.0,181.2 L118.0,185.0 L120.0,187.8 L122.0,189.6 L124.0,190.6 L126.0,190.9 L128.0,190.6 L130.0,189.9 L132.0,189.0 L134.0,188.1 L136.0,187.3 L138.0,186.9 L140.0,186.8 L142.0,187.3 L144.0,188.3 L146.0,189.8 L148.0,191.7 L150.0,194.0 L152.0,196.5 L154.0,198.9 L156.0,201.3 L158.0,203.2 L160.0,204.6 L162.0,205.2 L164.0,205.0 L166.0,203.7 L168.0,201.4 L170.0,198.0 L172.0,193.5 L174.0,188.0 L176.0,181.7 L178.0,174.7 L180.0,167.2 L182.0,159.4 L184.0,151.6 L186.0,144.0 L188.0,136.8 L190.0,130.2 L192.0,124.4 L194.0,119.5 L196.0,115.6 L198.0,112.6 L200.0,110.6 L202.0,109.5 L204.0,109.1 L206.0,109.3 L208.0,109.9 L210.0,110.8 L212.0,111.7 L214.0,112.5 L216.0,113.1 L218.0,113.2 L220.0,112.8 L222.0,111.9 L224.0,110.5 L226.0,108.6 L228.0,106.4 L230.0,104.0 L232.0,101.5 L234.0,99.1 L236.0,97.1 L238.0,95.6 L240.0,94.8 L242.0,94.9 L244.0,96.0 L246.0,98.1 L248.0,101.4 L250.0,105.7 L252.0,111.0 L254.0,117.2 L256.0,124.1 L258.0,131.6 L260.0,139.3 L262.0,147.1 L264.0,154.8 L266.0,162.0 L268.0,168.7 L270.0,174.7 L272.0,179.7 L274.0,183.8 L276.0,187.0 L278.0,189.1 L280.0,190.4 L282.0,190.9 L284.0,190.8 L286.0,190.2 L288.0,189.3 L290.0,188.4 L292.0,187.6 L294.0,187.0 L296.0,186.8 L298.0,187.1 L300.0,187.9 L302.0,189.2 L304.0,191.0 L306.0,193.2 L308.0,195.6 L310.0,198.1 L312.0,200.5 L314.0,202.6 L316.0,204.2 L318.0,205.1 L320.0,205.2 L322.0,204.3 L324.0,202.3 L326.0,199.3 L328.0,195.1 L330.0,190.0 L332.0,183.9 L334.0,177.1 L336.0,169.7 L338.0,162.0 L340.0,154.2 L342.0,146.5 L344.0,139.1 L346.0,132.3 L348.0,126.3 L350.0,121.1 L352.0,116.8 L354.0,113.5 L356.0,111.2 L358.0,109.8 L360.0,109.1 L362.0,109.2 L364.0,109.7 L366.0,110.5 L368.0,111.4 L370.0,112.3 L372.0,112.9 L374.0,113.2 L376.0,113.0 L378.0,112.3 L380.0,111.0 L382.0,109.3 L384.0,107.2 L386.0,104.8 L388.0,102.3 L390.0,99.9 L392.0,97.7 L394.0,96.0 L396.0,95.0 L398.0,94.8 L400.0,95.5 L402.0,97.3 L404.0,100.2 L406.0,104.1 L408.0,109.1 L410.0,115.0 L412.0,121.7 L414.0,129.0 L416.0,136.7 L418.0,144.5 L420.0,152.3 L422.0,159.7 L424.0,166.6 L426.0,172.8 L428.0,178.1 L430.0,182.6 L432.0,186.0 L434.0,188.5 L436.0,190.1 L438.0,190.8 L440.0,190.9 L442.0,190.4 L444.0,189.6 L446.0,188.7 L448.0,187.8 L450.0,187.2 L452.0,186.8 L454.0,186.9 L456.0,187.6 L458.0,188.7 L460.0,190.4 L462.0,192.4 L464.0,194.8 L466.0,197.3 L468.0,199.7 L470.0,202.0 L472.0,203.8 L474.0,204.9 L476.0,205.3 L478.0,204.7 L480.0,203.1 L482.0,200.4 L484.0,196.6 L486.0,191.8 L488.0,186.0 L490.0,179.4 L492.0,172.2 L494.0,164.6 L496.0,156.8 L498.0,149.0 L500.0,141.5 L502.0,134.5 L504.0,128.2 L506.0,122.7 L508.0,118.1 L510.0,114.5 L512.0,111.8 L514.0,110.1 L516.0,109.3 L518.0,109.1 L520.0,109.5 L522.0,110.2 L524.0,111.1 L526.0,112.0 L528.0,112.8 L530.0,113.2 L532.0,113.1 L534.0,112.6 L536.0,111.5 L538.0,109.9 L540.0,107.9 L542.0,105.6 L544.0,103.1 L546.0,100.6 L548.0,98.4 L550.0,96.5 L552.0,95.2 L554.0,94.7 L556.0,95.1 L558.0,96.6 L560.0,99.1 L562.0,102.7 L564.0,107.3 L566.0,113.0 L568.0,119.4 L570.0,126.5 L572.0,134.1 L574.0,141.9 L576.0,149.7 L578.0,157.3 L580.0,164.3 L582.0,170.8 L584.0,176.4 L586.0,181.2 L588.0,185.0 L590.0,187.8 L592.0,189.6 L594.0,190.6 L596.0,190.9 L598.0,190.6 L600.0,189.9 L602.0,189.0 L604.0,188.1 L606.0,187.3 L608.0,186.9 L610.0,186.8 L612.0,187.3 L614.0,188.3 L616.0,189.8 L618.0,191.7 L620.0,194.0 L622.0,196.5 L624.0,198.9 L626.0,201.3 L628.0,203.2 L630.0,204.6 L632.0,205.2 L634.0,205.0 L636.0,203.7 L638.0,201.4 L640.0,198.0 L642.0,193.5 L644.0,188.0 L646.0,181.7 L648.0,174.7 L650.0,167.2 L652.0,159.4 L654.0,151.6 L656.0,144.0 L658.0,136.8 L660.0,130.2 L662.0,124.4 L664.0,119.5 L666.0,115.6 L668.0,112.6 L670.0,110.6 L672.0,109.5 L674.0,109.1 L676.0,109.3 L678.0,109.9 L680.0,110.8 L682.0,111.7 L684.0,112.5 L686.0,113.1 L688.0,113.2 L690.0,112.8 L692.0,111.9 L694.0,110.5 L696.0,108.6 L698.0,106.4 L700.0,104.0 L702.0,101.5 L704.0,99.1 L706.0,97.1 L708.0,95.6 L710.0,94.8 L712.0,94.9 L714.0,96.0 L716.0,98.1 L718.0,101.4 L720.0,105.7 L722.0,111.0 L724.0,117.2 L726.0,124.1 L728.0,131.6 L730.0,139.3 L732.0,147.1 L734.0,154.8 L736.0,162.0 L738.0,168.7 L740.0,174.7 L742.0,179.7 L744.0,183.8 L746.0,187.0 L748.0,189.1 L750.0,190.4 L752.0,190.9 L754.0,190.8 L756.0,190.2 L758.0,189.3 L760.0,188.4 L762.0,187.6 L764.0,187.0 L766.0,186.8 L768.0,187.1 L770.0,187.9 L772.0,189.2 L774.0,191.0 L776.0,193.2 L778.0,195.6 L780.0,198.1 L782.0,200.5 L784.0,202.6 L786.0,204.2 L788.0,205.1 L790.0,205.2 L792.0,204.3 L794.0,202.3 L796.0,199.3 L798.0,195.1 L800.0,190.0 L802.0,183.9 L804.0,177.1 L806.0,169.7 L808.0,162.0 L810.0,154.2 L812.0,146.5 L814.0,139.1 L816.0,132.3 L818.0,126.3 L820.0,121.1 L822.0,116.8 L824.0,113.5 L826.0,111.2 L828.0,109.8 L830.0,109.1 L832.0,109.2 L834.0,109.7 L836.0,110.5 L838.0,111.4 L840.0,112.3 L842.0,112.9 L844.0,113.2 L846.0,113.0 L848.0,112.3 L850.0,111.0 L852.0,109.3 L854.0,107.2 L856.0,104.8 L858.0,102.3 L860.0,99.9 L862.0,97.7 L864.0,96.0 L866.0,95.0 L868.0,94.8 L870.0,95.5 L872.0,97.3 L874.0,100.2 L876.0,104.1 L878.0,109.1 L880.0,115.0 L882.0,121.7 L884.0,129.0 L886.0,136.7 L888.0,144.5 L890.0,152.3 L892.0,159.7 L894.0,166.6 L896.0,172.8 L898.0,178.1 L900.0,182.6 L902.0,186.0 L904.0,188.5 L906.0,190.1 L908.0,190.8 L910.0,190.9 L912.0,190.4 L914.0,189.6 L916.0,188.7 L918.0,187.8 L920.0,187.2 L922.0,186.8 L924.0,186.9 L926.0,187.6 L928.0,188.7 L930.0,190.4 L932.0,192.4 L934.0,194.8 L936.0,197.3 L938.0,199.7 L940.0,202.0 L942.0,203.8 L944.0,204.9 L946.0,205.3 L948.0,204.7 L950.0,203.1 L952.0,200.4 L954.0,196.6 L956.0,191.8 L958.0,186.0 L960.0,179.4 L962.0,172.2 L964.0,164.6 L966.0,156.8 L968.0,149.0 L970.0,141.5 L972.0,134.5 L974.0,128.2 L976.0,122.7 L978.0,118.1 L980.0,114.5 L982.0,111.8 L984.0,110.1 L986.0,109.3 L988.0,109.1 L990.0,109.5 L992.0,110.2 L994.0,111.1 L996.0,112.0 L998.0,112.8 L1000.0,113.2 L1002.0,113.1 L1004.0,112.6 L1006.0,111.5 L1008.0,109.9 L1010.0,107.9 L1012.0,105.6 L1014.0,103.1 L1016.0,100.6 L1018.0,98.4 L1020.0,96.5 L1022.0,95.2 L1024.0,94.7 L1026.0,95.1 L1028.0,96.6 L1030.0,99.1 L1032.0,102.7 L1034.0,107.3 L1036.0,113.0 L1038.0,119.4 L1040.0,126.5 L1042.0,134.1 L1044.0,141.9 L1046.0,149.7 L1048.0,157.3 L1050.0,164.3 L1052.0,170.8 L1054.0,176.4 L1056.0,181.2 L1058.0,185.0 L1060.0,187.8 L1062.0,189.6 L1064.0,190.6 L1066.0,190.9 L1068.0,190.6 L1070.0,189.9 L1072.0,189.0 L1074.0,188.1 L1076.0,187.3 L1078.0,186.9 L1080.0,186.8 L1082.0,187.3 L1084.0,188.3 L1086.0,189.8 L1088.0,191.7 L1090.0,194.0 L1092.0,196.5 L1094.0,198.9 L1096.0,201.3 L1098.0,203.2 L1100.0,204.6 L1102.0,205.2 L1104.0,205.0 L1106.0,203.7 L1108.0,201.4 L1110.0,198.0 L1112.0,193.5 L1114.0,188.0 L1116.0,181.7 L1118.0,174.7 L1120.0,167.2 L1122.0,159.4 L1124.0,151.6 L1126.0,144.0 L1128.0,136.8" stroke="#00e5ff" stroke-width="2.2" opacity=".85"/>
    <path class="ch2" d="M30,256.5 H37.8 V236.7 H86.4 V256.5 H116.2 V236.7 H164.7 V256.5 H194.5 V236.7 H243.1 V256.5 H272.8 V236.7 H321.4 V256.5 H351.2 V236.7 H399.7 V256.5 H429.5 V236.7 H478.1 V256.5 H507.8 V236.7 H556.4 V256.5 H586.2 V236.7 H634.7 V256.5 H664.5 V236.7 H713.1 V256.5 H742.8 V236.7 H791.4 V256.5 H821.2 V236.7 H869.7 V256.5 H899.5 V236.7 H948.1 V256.5 H977.8 V236.7 H1026.4 V256.5 H1056.2 V236.7 H1104.7 V256.5" stroke="#ff2bd6" stroke-width="2" opacity=".85"/>
  </g>

  <!-- name punches through the trace -->
  <g class="mono" text-anchor="middle" font-weight="800" font-size="70" letter-spacing="8">
    <text x="500.0" y="174.0" fill="#020807" stroke="#020807" stroke-width="22" stroke-linejoin="round">SIMON_F8</text>
    <text x="500.0" y="174.0" fill="#eafcff" filter="url(#gt)">SIMON_F8</text>
  </g>
  <text class="mono" x="500.0" y="206.0" text-anchor="middle" font-size="15" letter-spacing="3" fill="#8af4ff" stroke="#020807" stroke-width="8" paint-order="stroke">ELECTRICAL ENGINEERING · ROBOTICS · EMBEDDED SYSTEMS</text>

  <!-- on-screen readouts -->
  <g class="mono" font-size="13">
    <rect x="42" y="40" width="30" height="18" rx="3" fill="#00e5ff"/>
    <text x="57" y="53" text-anchor="middle" fill="#001014" font-weight="700">1</text>
    <text x="80" y="53" fill="#00e5ff">2.00 V/div</text>
    <rect x="180" y="40" width="30" height="18" rx="3" fill="#ff2bd6"/>
    <text x="195" y="53" text-anchor="middle" fill="#14000f" font-weight="700">2</text>
    <text x="218" y="53" fill="#ff2bd6">5.00 V/div</text>
    <text x="958" y="53" text-anchor="end" fill="#b9c6d6">500 µs/div   TRIG ↑ CH1 0.00 V   <tspan fill="#39ff88" class="blink">● RUN</tspan></text>
  </g>
  <path d="M30,144.0 l9,6 l-9,6z" fill="#00e5ff"/>
  <path d="M494.0,30 l6,9 l6,-9z" fill="#ffb000"/>

  <rect x="30" y="30" width="940" height="240" fill="url(#scan)"/>
  <rect x="30" y="30" width="940" height="240" fill="url(#vig)"/>
</g>

<!-- measurement bar on the bezel -->
<g class="mono" font-size="13" fill="#7d8aa0">
  <text x="34" y="306"><tspan fill="#00e5ff">CH1</tspan>  freq 1.000 kHz   Vpp 7.36 V   <tspan fill="#ff2bd6">CH2</tspan>  freq 2.000 kHz   duty 62.0 %   Vmax 3.30 V</text>
  <text x="966" y="306" text-anchor="end" fill="#4b5568">SF8-SCOPE · 4 CH · 1 GS/s</text>
</g>
</svg>